<svg xmlns="http://www.w3.org/2000/svg" width="512.989176042577" height="194.93588689617928" viewBox="0 0 300.0 113.80511">
<g style="fill:#002134" transform="matrix(0.483372,0,0,0.483372,-91.686001,-184.61427)">
 <path d="m 712.31,617.37 c 88.21,0 98.01,-9.81 98.01,-98.1 v -39.24 c 0,-88.29 -9.8,-98.1 -98.01,-98.1 h -39.2 c -88.21,0 -98.01,9.81 -98.01,98.1 v 39.24 c 0,88.29 9.8,98.1 98.01,98.1 z m 9.8,-49.05 -58.81,19.62 V 430.98 l 58.81,-19.62 z"/>
 <path d="m 280.96,538.53 12.54,-4.18 v 53.6 H 280.96 Z M 256,587.94 h 12.54 V 509.57 H 256 Z m -24.97,-53.6 h 12.54 v 53.6 h -12.54 v -7.8 c -3.39,6.11 -9.83,9.16 -18.98,9.16 -14.23,0 -22.37,-8.14 -22.37,-28.16 0,-20.02 8.14,-28.16 22.37,-28.16 9.15,0 15.59,3.05 18.98,9.16 z m 0,25.44 c 0,-10.52 -3.73,-14.59 -14.58,-14.59 -10.85,0 -14.23,4.07 -14.23,14.59 v 2.71 c 0,10.51 3.73,14.59 14.23,14.59 10.5,0 14.58,-4.07 14.58,-14.59 z m 273.18,-25.44 h 12.2 v 53.6 h -12.2 v -7.8 c -3.73,6.11 -10.17,9.16 -19.32,9.16 -14.23,0 -22.03,-8.14 -22.03,-28.16 0,-20.02 7.79,-28.16 22.03,-28.16 9.15,0 15.59,3.05 19.32,9.16 z m 0,25.44 c -0.34,-10.52 -4.06,-14.59 -14.58,-14.59 -10.52,0 -14.58,4.07 -14.58,14.59 v 2.71 c 0,10.51 4.06,14.59 14.58,14.59 10.52,0 14.23,-4.07 14.58,-14.59 z m -72.19,-26.8 c -8.81,0 -14.58,3.4 -17.29,9.84 -2.71,-6.45 -8.47,-9.84 -17.29,-9.84 -7.12,0 -12.54,2.38 -15.59,7.13 v -5.77 h -12.2 v 53.6 h 12.2 v -31.55 c 0,-8.14 3.05,-11.19 11.19,-11.19 8.14,0 10.85,3.05 10.85,11.19 v 31.55 h 12.54 v -31.55 c 0,-8.14 2.71,-11.19 10.85,-11.19 8.14,0 11.19,3.05 11.19,11.19 v 31.55 h 12.2 v -36.3 c 0,-11.88 -6.78,-18.66 -18.64,-18.66 v 0 z m -151.06,-4.74 h 12.54 v -12.21 h -12.54 z m 55.48,4.74 c -8.47,0 -14.58,3.05 -17.96,8.48 v -7.13 h -12.54 v 53.6 h 12.54 v -29.17 c 0,-9.84 3.39,-13.57 13.22,-13.57 9.83,0 13.56,3.73 13.56,13.57 v 29.17 h 12.2 v -33.92 c 0,-13.57 -7.46,-21.04 -21.02,-21.04 v 0 z m 35.14,-48.12 c -9.26,0 -14.35,-2.49 -14.35,-14.36 0,-11.87 5.08,-14.36 14.35,-14.36 9.27,0 14.35,2.49 14.35,14.36 0,11.87 -5.08,14.36 -14.35,14.36 z m 53.55,-46.36 v 39.13 h -12.88 c -10.39,0 -13.23,-3.58 -13.98,-11.35 -1.65,-17.28 -13.58,-22.35 -26.7,-22.35 -14.12,0 -26.89,5.88 -26.89,26.57 0,2.6 0.2,4.97 0.58,7.13 h -76.85 c -9.83,0 -13.56,-1.47 -13.56,-13.57 v -52.69 h -12.54 v 57.11 c 0,15.83 7.01,21.37 21.02,21.37 h 87.66 c 5.06,5.36 12.6,7.24 20.58,7.24 9.79,0 18.92,-2.83 23.61,-11.45 3.26,2.9 8.22,4.21 17.07,4.21 h 25.42 v -51.34 h -12.54 z m 0,-20.92 v 12.55 h 12.54 v -12.55 z m 44.4,94.88 v -5.65 h -4.41 c -3.05,0 -5.31,-1.02 -5.31,-3.51 0,-2.03 1.58,-2.71 4.63,-2.71 h 2.49 v -5.54 h -4.3 c -5.76,0 -8.7,2.6 -8.7,6.56 0,2.26 0.79,3.96 2.03,5.21 h -4.41 v 5.65 h 17.97 z m 22.14,-22.62 v -78.48 h -12.54 v 66.27 h -33.1 v 12.21 h 45.65 v 0 z m 12.2,-78.49 v 78.48 h 12.54 v -78.48 z m -267.65,78.49 v -12.21 h -9.38 c -10.5,0 -16.83,-3.84 -16.83,-11.53 0,-4.52 3.39,-7.02 10.06,-7.02 h 7.79 v -12.21 h -11.63 c -11.3,0 -18.75,6.78 -18.75,16.74 0,5.77 1.47,10.29 4.74,14.02 h -12.54 v 12.21 h 46.55 v 0 z m 218.17,-74.3 12.54,-4.18 v 57.9 h -12.54 v -53.71 0 z"/>
</g>
</svg>