<svg id="Layer_1" data-name="Layer 1" xmlns="http://www.w3.org/2000/svg" xmlns:xlink="http://www.w3.org/1999/xlink" viewBox="0 0 105.86 31.37"><defs><style>.cls-1,.cls-10,.cls-2,.cls-3{fill:#fff;}.cls-1{fill-opacity:0;}.cls-2{stroke:#fff;stroke-miterlimit:10;stroke-width:0.25px;}.cls-4{fill:url(#linear-gradient);}.cls-5{fill:url(#linear-gradient-2);}.cls-6{fill:url(#linear-gradient-3);}.cls-7{fill:url(#linear-gradient-4);}.cls-8{opacity:0.2;}.cls-10,.cls-8,.cls-9{isolation:isolate;}.cls-9{opacity:0.12;}.cls-10{opacity:0.25;}</style><linearGradient id="linear-gradient" x1="-512.62" y1="-218.33" x2="-515.77" y2="-215.18" gradientTransform="translate(2000.21 850.32) scale(3.86)" gradientUnits="userSpaceOnUse"><stop offset="0" stop-color="#4592ce"/><stop offset="0.01" stop-color="#4493cf"/><stop offset="0.26" stop-color="#3eb4e7"/><stop offset="0.51" stop-color="#49bde8"/><stop offset="0.76" stop-color="#5bbfe2"/><stop offset="1" stop-color="#60c0e1"/></linearGradient><linearGradient id="linear-gradient-2" x1="-510.36" y1="-216.21" x2="-514.9" y2="-216.21" gradientTransform="translate(2000.21 850.32) scale(3.86)" gradientUnits="userSpaceOnUse"><stop offset="0" stop-color="#fcdc07"/><stop offset="0.41" stop-color="#f7b80f"/><stop offset="0.78" stop-color="#f29f18"/><stop offset="1" stop-color="#f1961b"/></linearGradient><linearGradient id="linear-gradient-3" x1="-512.05" y1="-215.78" x2="-516.32" y2="-211.5" gradientTransform="translate(2000.21 850.32) scale(3.86)" gradientUnits="userSpaceOnUse"><stop offset="0" stop-color="#e44249"/><stop offset="1" stop-color="#bf1062"/></linearGradient><linearGradient id="linear-gradient-4" x1="-515.34" y1="-219.93" x2="-513.43" y2="-218.02" gradientTransform="translate(2000.21 850.32) scale(3.86)" gradientUnits="userSpaceOnUse"><stop offset="0" stop-color="#329c71"/><stop offset="0.07" stop-color="#2da371"/><stop offset="0.48" stop-color="#4eae6f"/><stop offset="0.8" stop-color="#61b168"/><stop offset="1" stop-color="#64b263"/></linearGradient></defs><rect id="rect46" class="cls-1" y="0.04" width="80.93" height="31.33"/><rect id="rect48" width="105.86" height="31.37" rx="3.92"/><path id="path52-2" class="cls-2" d="M39,8.23a2,2,0,0,1-.54,1.45,2.13,2.13,0,0,1-1.6.64A2.28,2.28,0,0,1,34.6,8a2.25,2.25,0,0,1,.66-1.59A2.31,2.31,0,0,1,37.76,6a1.8,1.8,0,0,1,.68.48l-.39.39a1.46,1.46,0,0,0-1.19-.52A1.69,1.69,0,0,0,35.17,8v.06a1.72,1.72,0,0,0,1.69,1.74,1.74,1.74,0,0,0,1.21-.48,1.35,1.35,0,0,0,.37-.89H36.86V7.9H39a1.84,1.84,0,0,1,0,.33Z"/><path id="path54-6" class="cls-2" d="M42.32,6.41h-2V7.79h1.78v.52H40.37V9.69h2v.54H39.79V5.88h2.53Z"/><path id="path56-4" class="cls-2" d="M44.7,10.23h-.56V6.41H42.93V5.88h3v.53H44.7Z"/><path id="path58-2" class="cls-2" d="M48.08,10.23V5.88h.56v4.35Z"/><path id="path60-7" class="cls-2" d="M51.12,10.23h-.56V6.41H49.34V5.88h3v.53H51.12Z"/><path id="path62-0" class="cls-2" d="M58,9.66a2.26,2.26,0,0,1-3.19,0,2.33,2.33,0,0,1,0-3.22,2.25,2.25,0,0,1,3.18,0v0A2.33,2.33,0,0,1,58,9.66ZM55.22,9.3a1.67,1.67,0,0,0,2.36,0,1.83,1.83,0,0,0,0-2.49,1.65,1.65,0,0,0-2.36,0A1.85,1.85,0,0,0,55.22,9.3Z"/><path id="path64" class="cls-2" d="M59.43,10.23V5.88h.68l2.12,3.38h0V5.88h.55v4.35H62.2L60,6.68h0v3.55Z"/><path id="path66" class="cls-3" d="M54,16.57a3.09,3.09,0,1,0,3.1,3.09,3.05,3.05,0,0,0-3-3.09Zm0,5a1.87,1.87,0,1,1,1.74-2v.13a1.79,1.79,0,0,1-1.69,1.87Zm-6.75-5a3.09,3.09,0,1,0,3.09,3.09,3.05,3.05,0,0,0-3-3.09h-.09Zm0,5a1.87,1.87,0,1,1,1.73-2v.14a1.79,1.79,0,0,1-1.69,1.87h0Zm-8.05-4v1.31h3.14a2.77,2.77,0,0,1-.73,1.65,3.19,3.19,0,0,1-2.41.95,3.48,3.48,0,1,1,0-7,3.34,3.34,0,0,1,2.37.94l.92-.92a4.56,4.56,0,0,0-3.29-1.36,4.79,4.79,0,0,0-.37,9.58h.37a4.23,4.23,0,0,0,4.48-4.4,4.47,4.47,0,0,0-.07-.82H39.23Zm32.87,1a2.84,2.84,0,0,0-5.55.93,1.28,1.28,0,0,0,0,.19,3,3,0,0,0,3,3.08h.11a3.08,3.08,0,0,0,2.56-1.36l-1.05-.73a1.77,1.77,0,0,1-1.51.86,1.58,1.58,0,0,1-1.5-.94l4.13-1.7Zm-4.21,1a1.69,1.69,0,0,1,1.58-1.8h0a1.22,1.22,0,0,1,1.15.65Zm-3.35,3H65.9V13.49H64.54Zm-2.22-5.3h0a2.19,2.19,0,0,0-1.63-.72,3.09,3.09,0,0,0,0,6.17A2.08,2.08,0,0,0,62.27,22h0v.51c0,1.18-.63,1.81-1.64,1.81a1.71,1.71,0,0,1-1.56-1.1l-1.18.5a3,3,0,0,0,2.74,1.82c1.58,0,2.9-.94,2.9-3.22V16.76H62.32Zm-1.55,4.27a1.88,1.88,0,0,1,0-3.74,1.73,1.73,0,0,1,1.65,1.82v.05a1.72,1.72,0,0,1-1.57,1.86h-.07Zm17.68-8H75.21v9.07h1.35V19.12h1.9a2.82,2.82,0,1,0,.39-5.63Zm0,4.35H76.56V14.75h1.92a1.56,1.56,0,0,1,0,3.11h0Zm8.36-1.3a2.52,2.52,0,0,0-2.41,1.38l1.2.5a1.49,1.49,0,0,1,2.68.48V19a3,3,0,0,0-1.41-.35c-1.3,0-2.61.73-2.61,2a2.1,2.1,0,0,0,2.19,2h.06a1.91,1.91,0,0,0,1.74-.87h0v.73H89.6V19.07a2.5,2.5,0,0,0-2.75-2.51Zm-.17,5a.93.93,0,0,1-1-.77c0-.73.76-1,1.45-1a2.42,2.42,0,0,1,1.23.31,1.64,1.64,0,0,1-1.59,1.45Zm7.71-4.75L92.8,20.69h0l-1.61-3.93H89.7l2.41,5.49-1.37,3.06h1.41l3.71-8.55H94.35Zm-12.19,5.8h1.36V13.49H82.16Z"/><path id="path68" class="cls-4" d="M12.18,6.27a1.48,1.48,0,0,0-.33,1v16a1.47,1.47,0,0,0,.33,1l.05.05,9-9V15.2l-9-9Z"/><path id="path70" class="cls-5" d="M24.19,18.41l-3-3V15.2l3-3,.07,0,3.56,2a1.11,1.11,0,0,1,0,2.1l-3.55,2Z"/><path id="path72" class="cls-6" d="M24.28,18.37l-3.06-3.06-9,9a1.18,1.18,0,0,0,1.51.05l10.6-6"/><path id="path74" class="cls-7" d="M24.28,12.24l-10.6-6a1.16,1.16,0,0,0-1.5,0l9,9Z"/><path id="path76" class="cls-8" d="M24.19,18.3l-10.51,6a1.19,1.19,0,0,1-1.45,0h0l-.05,0h0l.05.06h0a1.22,1.22,0,0,0,1.45,0l10.6-6Z"/><path id="path80" class="cls-9" d="M27.82,16.25,24.19,18.3l.07.07,3.56-2a1.24,1.24,0,0,0,.72-1h0a1.35,1.35,0,0,1-.72.94Z"/><path id="path82" class="cls-10" d="M13.68,6.33l14.14,8a1.37,1.37,0,0,1,.72,1h0a1.25,1.25,0,0,0-.72-1.05l-14.14-8c-1-.58-1.84-.1-1.84,1.06V7.4c0-1.17.84-1.65,1.84-1.07Z"/></svg>