<?xml version="1.0" encoding="utf-8"?>
<!-- Generator: Adobe Illustrator 26.3.1, SVG Export Plug-In . SVG Version: 6.00 Build 0)  -->
<svg version="1.1" id="Layer_1" xmlns="http://www.w3.org/2000/svg" xmlns:xlink="http://www.w3.org/1999/xlink" x="0px" y="0px"
	 viewBox="0 0 293 124" style="enable-background:new 0 0 293 124;" xml:space="preserve">
<style type="text/css">
	.st0{fill:#146394;}
	.st1{fill:#FAA62E;}
</style>
<g>
	<path class="st0" d="M55.4,0.9c-5.9,0-11.7,0.9-17.3,2.8c-0.7,6.1-1,12.1-0.9,18.2c9.6-3.7,21.2-5.8,30.6-0.2
		c15,8.9-3.7,30.3-3.7,30.3s18.7-3.2,25.6,7.6c5.5,8.7,1.2,24.4-18.4,34.1c4.3,3.2,8.9,5.9,13.7,8.2c25.5-16.4,32.9-50.3,16.5-75.7
		C91.5,10.4,74.1,0.9,55.4,0.9L55.4,0.9z"/>
	<path class="st0" d="M69.4,94.6c-4.8,2.1-9.8,3.8-14.9,4.9c4.2-1.9,8.1-4.1,11.8-6.8c-6.1-3.9-11.7-8.5-16.8-13.6
		C36.2,65.5,30.7,44.2,28.5,28.4c-5.6,1.8-9.6,3.4-9.6,3.4c3-2.1,6.1-4,9.3-5.7c-0.7-5.7-1.1-11.5-1.2-17.2
		C1.2,24.8-6.7,58.6,9.2,84.4c15.9,25.7,49.7,33.7,75.4,17.7C79.4,100,74.3,97.5,69.4,94.6"/>
	<path class="st0" d="M61.5,28.3c-4.4-5.2-14.7-4.4-24.1-2.3C39,59.8,54.2,79.8,68.2,91.2c9.9-7.8,16.1-18,10.8-26.7
		c-4.6-7.5-18.8-8.7-30.5-4.2C59.6,51.7,69.6,38,61.5,28.3"/>
	<path class="st1" d="M141.2,123l-6.3-10.9c2.5-1.1,62.6-25.7,157.1-16l-1.8,12.1C200,98.9,141.8,122.8,141.2,123"/>
	<path class="st0" d="M173,65.7l-0.8,12.1c-2.7,1.1-14.2,5.4-23.1,5.4c-24.5,0-34.3-16.6-34.3-32.1c0-19.5,15.3-33.4,36.9-33.4
		c7,0,14.2,1.5,17.7,2.3h2v14.6l-3.7,0.5c-2.7-10.3-8.1-13.5-18.7-13.5c-14.9,0-23.1,13-23.1,27.6c0,18.2,9.6,30.1,24.1,30.1
		c10.5,0,15.1-5.1,19.3-15.1L173,65.7z"/>
	<path class="st0" d="M201.1,73.4V59.8l-7.9,2.6c-3.3,1.1-6.2,3.6-6.2,7c0,5,4.3,7.2,6.9,7.2C196.6,76.5,201.1,73.4,201.1,73.4
		 M209.1,82.5c-4.2,0-6.7-2.8-7.7-5.6c-3.2,2.5-7.5,5.6-10.9,5.6c-7.2,0-13.3-4.8-13.3-11.1c0-4.3,3.9-9.1,9.3-10.9l14.5-4.5v-2.9
		c0-6.6-1.5-11.3-6.4-11.3c-6.3,0-11.5,9.4-11.5,9.4l-4.5-6.5c0,0,6.6-6.9,18.2-6.9c9,0,12.9,6.2,12.9,14.4v18c0,4.2,1.4,6,2.7,6
		c0.9,0,1.4-0.2,2.9-1.2l1.1,2.8L209.1,82.5z"/>
	<path class="st0" d="M235.6,44.3c3.1-3.6,7-6.4,11.1-6.4c3.7,0,6.9,3.3,6.9,3.3l-3.3,6.3c0,0-4.7-2.9-6.9-2.9c-2.2,0-5.3,1.6-7.9,6
		v20.5c0,6.2,1.6,6.8,11,7.4v2.8h-27v-2.7c5.9-0.6,7.2-1.2,7.2-7.5V49.6c0-6.1-0.5-6.7-6.7-7v-2.6l15.5-2V44.3z"/>
	<path class="st0" d="M263.9,54.1h16.9c1.6-0.2,1.6-0.6,1.6-2.2c0-5.6-2.9-10.1-8.5-10.1C269.7,41.8,265,46,263.9,54.1 M291.9,73
		c-6.3,8-14.4,9.5-17.5,9.5c-12.2,0-19.8-9.6-19.8-20.6c0-13.6,10.7-24,21.6-24c8.5,0,15.8,7.2,15.8,15.9c0,2-0.2,3.9-2.8,4.2h-25.7
		c0.1,12.8,7.7,17.6,14.2,17.6c3.7,0,8.5-1.7,12.2-5.3L291.9,73z"/>
</g>
</svg>
