<svg id="Layer_1" data-name="Layer 1" xmlns="http://www.w3.org/2000/svg" viewBox="0 0 110.32 31.66"><defs><style>.cls-1{fill:#fff;}</style></defs><g id="g62"><path id="path4" d="M110.32,28.49a3.17,3.17,0,0,1-3.18,3.17H3.18A3.18,3.18,0,0,1,0,28.49V3.18A3.19,3.19,0,0,1,3.18,0h104a3.18,3.18,0,0,1,3.18,3.18Z"/><g id="g12"><g id="g10"><path id="path6" class="cls-1" d="M24.23,15.66a4.77,4.77,0,0,1,2.28-4,4.91,4.91,0,0,0-3.87-2.1c-1.63-.17-3.21,1-4,1s-2.13-1-3.5-.93a5.15,5.15,0,0,0-4.35,2.64c-1.87,3.25-.47,8,1.32,10.66.9,1.28,2,2.72,3.33,2.67s1.85-.86,3.48-.86,2.08.86,3.48.83,2.36-1.29,3.23-2.59a10.8,10.8,0,0,0,1.47-3,4.65,4.65,0,0,1-2.83-4.27Z"/><path id="path8" class="cls-1" d="M21.57,7.8a4.74,4.74,0,0,0,1.09-3.39A4.88,4.88,0,0,0,19.54,6a4.57,4.57,0,0,0-1.11,3.27A4,4,0,0,0,21.57,7.8Z"/></g></g><g id="g30"><path id="path14" class="cls-1" d="M43.71,25.37H41.83l-1-3.24H37.22l-1,3.24H34.4l3.55-11h2.19Zm-3.22-4.6-.93-2.88c-.1-.3-.29-1-.56-2.08h0c-.11.47-.29,1.16-.53,2.08l-.91,2.88Z"/><path id="path16" class="cls-1" d="M52.84,21.29a4.53,4.53,0,0,1-1.1,3.21,3.18,3.18,0,0,1-2.43,1.05,2.45,2.45,0,0,1-2.26-1.13h0v4.19H45.25V20c0-.85,0-1.72-.07-2.61h1.56l.1,1.26h0a3.14,3.14,0,0,1,5-.32A4.39,4.39,0,0,1,52.84,21.29Zm-1.8.07a3.29,3.29,0,0,0-.52-1.92,1.89,1.89,0,0,0-2.73-.35,2,2,0,0,0-.69,1.14,2.06,2.06,0,0,0-.08.54v1.32a2.11,2.11,0,0,0,.53,1.47,1.75,1.75,0,0,0,1.38.6,1.8,1.8,0,0,0,1.55-.77A3.34,3.34,0,0,0,51,21.36Z"/><path id="path18" class="cls-1" d="M62,21.29a4.53,4.53,0,0,1-1.1,3.21,3.22,3.22,0,0,1-2.44,1.05,2.45,2.45,0,0,1-2.26-1.13h0v4.19H54.39V20q0-1.28-.06-2.61h1.55l.1,1.26h0a3.15,3.15,0,0,1,5-.32A4.44,4.44,0,0,1,62,21.29Zm-1.8.07a3.3,3.3,0,0,0-.53-1.92,1.88,1.88,0,0,0-2.72-.35,2,2,0,0,0-.7,1.14,2.6,2.6,0,0,0-.08.54v1.32a2.16,2.16,0,0,0,.53,1.47,1.78,1.78,0,0,0,1.39.6,1.81,1.81,0,0,0,1.55-.77,3.41,3.41,0,0,0,.56-2Z"/><path id="path20" class="cls-1" d="M72.21,22.27a2.94,2.94,0,0,1-1,2.29,4.31,4.31,0,0,1-3,1,5.24,5.24,0,0,1-2.86-.69l.41-1.47a4.82,4.82,0,0,0,2.55.7,2.42,2.42,0,0,0,1.56-.45,1.46,1.46,0,0,0,.55-1.2A1.51,1.51,0,0,0,70,21.29a4.11,4.11,0,0,0-1.52-.85q-2.89-1.08-2.89-3.17a2.8,2.8,0,0,1,1-2.22,4,4,0,0,1,2.7-.87,5.37,5.37,0,0,1,2.51.52l-.45,1.44a4.31,4.31,0,0,0-2.11-.51,2.15,2.15,0,0,0-1.45.46,1.31,1.31,0,0,0-.44,1,1.33,1.33,0,0,0,.5,1.08,5.7,5.7,0,0,0,1.61.85,5.43,5.43,0,0,1,2.09,1.34,2.78,2.78,0,0,1,.67,1.91Z"/><path id="path22" class="cls-1" d="M78.05,18.74h-2V22.6c0,1,.35,1.47,1,1.47a3,3,0,0,0,.79-.08l0,1.34a4,4,0,0,1-1.38.2A2.1,2.1,0,0,1,75,24.89a3.15,3.15,0,0,1-.59-2.14v-4H73.21V17.41h1.16V16l1.73-.53v2h2Z"/><path id="path24" class="cls-1" d="M86.84,21.33a4.36,4.36,0,0,1-1,3,3.76,3.76,0,0,1-2.91,1.21,3.56,3.56,0,0,1-2.79-1.16,4.22,4.22,0,0,1-1-2.93,4.3,4.3,0,0,1,1.07-3A3.73,3.73,0,0,1,83,17.25a3.65,3.65,0,0,1,2.81,1.16,4.21,4.21,0,0,1,1,2.92ZM85,21.38a3.52,3.52,0,0,0-.47-1.88,1.75,1.75,0,0,0-1.59-1,1.77,1.77,0,0,0-1.62,1,3.69,3.69,0,0,0-.47,1.92,3.62,3.62,0,0,0,.47,1.88,1.79,1.79,0,0,0,1.61.95,1.75,1.75,0,0,0,1.58-1A3.54,3.54,0,0,0,85,21.38Z"/><path id="path26" class="cls-1" d="M92.58,19a3.33,3.33,0,0,0-.56,0,1.67,1.67,0,0,0-1.44.7,2.69,2.69,0,0,0-.44,1.57v4.18H88.37l0-5.45c0-.92,0-1.75-.07-2.5h1.54l.07,1.52h0a2.63,2.63,0,0,1,.88-1.26,2.1,2.1,0,0,1,1.28-.43,2.94,2.94,0,0,1,.44,0Z"/><path id="path28" class="cls-1" d="M100.48,21a3.75,3.75,0,0,1-.07.81h-5.3a2.36,2.36,0,0,0,.77,1.8,2.65,2.65,0,0,0,1.74.55,5.86,5.86,0,0,0,2.14-.37L100,25a6.6,6.6,0,0,1-2.67.49,3.86,3.86,0,0,1-2.9-1.08,4,4,0,0,1-1.06-2.92,4.56,4.56,0,0,1,1-3,3.37,3.37,0,0,1,2.78-1.27,3,3,0,0,1,2.6,1.27,4.36,4.36,0,0,1,.7,2.5Zm-1.69-.45a2.32,2.32,0,0,0-.34-1.36A1.54,1.54,0,0,0,97,18.46a1.68,1.68,0,0,0-1.4.72,2.64,2.64,0,0,0-.53,1.38Z"/></g><g id="g60"><g id="g58"><path id="path32" class="cls-1" d="M39.9,7.56A2.73,2.73,0,0,1,39,9.76a3.52,3.52,0,0,1-2.31.68,11.63,11.63,0,0,1-1.27-.06V5.05A8.81,8.81,0,0,1,37,4.94a3.21,3.21,0,0,1,2.14.61A2.52,2.52,0,0,1,39.9,7.56Zm-.91,0a2,2,0,0,0-.5-1.46A2,2,0,0,0,37,5.62a4.58,4.58,0,0,0-.7,0V9.73l.59,0a2.07,2.07,0,0,0,1.54-.55A2.23,2.23,0,0,0,39,7.58Z"/><path id="path34" class="cls-1" d="M44.76,8.41a2.12,2.12,0,0,1-.52,1.48,1.83,1.83,0,0,1-1.43.59,1.75,1.75,0,0,1-1.37-.57,2.08,2.08,0,0,1-.51-1.44A2.11,2.11,0,0,1,41.46,7a2,2,0,0,1,2.8,0A2.06,2.06,0,0,1,44.76,8.41Zm-.9,0a1.83,1.83,0,0,0-.23-.93.9.9,0,0,0-1.58,0,1.75,1.75,0,0,0-.23.94,1.83,1.83,0,0,0,.23.93.88.88,0,0,0,.79.47.87.87,0,0,0,.78-.48,1.74,1.74,0,0,0,.24-.93Z"/><path id="path36" class="cls-1" d="M51.27,6.49l-1.22,3.9h-.8L48.74,8.7c-.12-.43-.23-.85-.31-1.27h0A8.11,8.11,0,0,1,48.1,8.7l-.54,1.69h-.8l-1.15-3.9h.89l.44,1.85q.16.66.27,1.26h0c.07-.33.18-.74.33-1.25l.55-1.86h.71l.53,1.82c.13.45.23.88.31,1.29h0a12.28,12.28,0,0,1,.26-1.29l.48-1.82Z"/><path id="path38" class="cls-1" d="M55.77,10.39H54.9V8.16c0-.69-.26-1-.79-1a.78.78,0,0,0-.62.29,1,1,0,0,0-.24.67v2.31h-.87V7.6q0-.51,0-1.11h.76l0,.61h0a1.47,1.47,0,0,1,.45-.48,1.54,1.54,0,0,1,.79-.22,1.23,1.23,0,0,1,.91.36,1.71,1.71,0,0,1,.45,1.29Z"/><path id="path40" class="cls-1" d="M58.16,10.39H57.3V4.69h.86Z"/><path id="path42" class="cls-1" d="M63.28,8.41a2.12,2.12,0,0,1-.52,1.48,1.85,1.85,0,0,1-1.43.59A1.75,1.75,0,0,1,60,9.91a2.08,2.08,0,0,1-.51-1.44A2.11,2.11,0,0,1,60,7a2,2,0,0,1,2.8,0A2.06,2.06,0,0,1,63.28,8.41Zm-.9,0a1.74,1.74,0,0,0-.24-.93A.86.86,0,0,0,61.36,7a.87.87,0,0,0-.79.47,1.75,1.75,0,0,0-.23.94,1.74,1.74,0,0,0,.23.93.88.88,0,0,0,.79.47.85.85,0,0,0,.77-.48,1.66,1.66,0,0,0,.25-.93Z"/><path id="path44" class="cls-1" d="M67.48,10.39H66.7l-.06-.45h0a1.34,1.34,0,0,1-1.14.54,1.18,1.18,0,0,1-.89-.35,1.14,1.14,0,0,1-.31-.8,1.22,1.22,0,0,1,.6-1.09,3.1,3.1,0,0,1,1.69-.37V7.8c0-.52-.27-.77-.81-.77a1.82,1.82,0,0,0-1,.28l-.18-.57a2.54,2.54,0,0,1,1.34-.33c1,0,1.53.54,1.53,1.61V9.46a5.68,5.68,0,0,0,.06.93Zm-.9-1.34v-.6c-1,0-1.44.24-1.44.79a.58.58,0,0,0,.17.45.57.57,0,0,0,.42.16.87.87,0,0,0,.53-.18.72.72,0,0,0,.3-.47.61.61,0,0,0,0-.15Z"/><path id="path46" class="cls-1" d="M72.41,10.39h-.77l0-.62h0a1.32,1.32,0,0,1-1.26.71,1.46,1.46,0,0,1-1.17-.55,2.16,2.16,0,0,1-.46-1.44A2.27,2.27,0,0,1,69.19,7a1.57,1.57,0,0,1,1.21-.54,1.16,1.16,0,0,1,1.1.53h0V4.69h.87V9.34q0,.57,0,1.05Zm-.9-1.64V8.09a1.06,1.06,0,0,0,0-.27,1,1,0,0,0-.31-.53.88.88,0,0,0-.58-.21.9.9,0,0,0-.77.39,1.68,1.68,0,0,0-.28,1,1.54,1.54,0,0,0,.27.94.91.91,0,0,0,.76.38.81.81,0,0,0,.68-.32A1.06,1.06,0,0,0,71.51,8.75Z"/><path id="path48" class="cls-1" d="M79.84,8.41a2.16,2.16,0,0,1-.51,1.48,1.86,1.86,0,0,1-1.43.59,1.77,1.77,0,0,1-1.38-.57A2.08,2.08,0,0,1,76,8.47,2.11,2.11,0,0,1,76.54,7a2,2,0,0,1,2.8,0A2.06,2.06,0,0,1,79.84,8.41Zm-.9,0a1.83,1.83,0,0,0-.23-.93A.87.87,0,0,0,77.93,7a.89.89,0,0,0-.8.47,1.84,1.84,0,0,0-.23.94,1.83,1.83,0,0,0,.23.93.88.88,0,0,0,.79.47.87.87,0,0,0,.78-.48A1.74,1.74,0,0,0,78.94,8.44Z"/><path id="path50" class="cls-1" d="M84.51,10.39h-.87V8.16c0-.69-.26-1-.79-1a.78.78,0,0,0-.62.29,1,1,0,0,0-.24.67v2.31h-.87V7.6q0-.51,0-1.11h.76l0,.61h0a1.47,1.47,0,0,1,.45-.48,1.54,1.54,0,0,1,.79-.22,1.23,1.23,0,0,1,.91.36,1.71,1.71,0,0,1,.45,1.29Z"/><path id="path52" class="cls-1" d="M90.35,7.14H89.4V9c0,.49.17.73.5.73a2,2,0,0,0,.39,0l0,.66a2,2,0,0,1-.67.09,1,1,0,0,1-.8-.31,1.5,1.5,0,0,1-.29-1.05v-2H88V6.49h.58V5.77l.85-.26v1h.95v.65Z"/><path id="path54" class="cls-1" d="M95,10.39h-.87V8.17q0-1.05-.78-1a.82.82,0,0,0-.83.61,1,1,0,0,0,0,.31v2.35h-.87V4.69h.87V7.05h0a1.32,1.32,0,0,1,1.18-.64,1.19,1.19,0,0,1,.89.35A1.79,1.79,0,0,1,95,8.07Z"/><path id="path56" class="cls-1" d="M99.69,8.26a2.21,2.21,0,0,1,0,.39h-2.6a1.13,1.13,0,0,0,.37.88,1.27,1.27,0,0,0,.86.28,3,3,0,0,0,1-.19l.13.6a3.09,3.09,0,0,1-1.31.25,1.87,1.87,0,0,1-1.42-.54,1.93,1.93,0,0,1-.52-1.43A2.24,2.24,0,0,1,96.7,7a1.66,1.66,0,0,1,1.37-.63A1.43,1.43,0,0,1,99.34,7a2,2,0,0,1,.35,1.23ZM98.86,8a1.21,1.21,0,0,0-.16-.67A.77.77,0,0,0,98,7a.83.83,0,0,0-.69.36,1.24,1.24,0,0,0-.25.67Z"/></g></g></g></svg>